<svg xmlns="http://www.w3.org/2000/svg" xmlns:xlink="http://www.w3.org/1999/xlink" width="500" zoomAndPan="magnify" viewBox="0 0 375 359.249998" height="479" preserveAspectRatio="xMidYMid meet" version="1.0"><defs><clipPath id="id1"><path d="M 0.390625 31 L 374.609375 31 L 374.609375 226 L 0.390625 226 Z M 0.390625 31 " clip-rule="nonzero"/></clipPath><clipPath id="id2"><path d="M 23 0 L 352 0 L 352 358.5 L 23 358.5 Z M 23 0 " clip-rule="nonzero"/></clipPath></defs><path fill="rgb(96.078491%, 48.629761%, 0%)" d="M 198.09375 202.632812 C 198.09375 210.90625 210.867188 319.535156 187.5 311.742188 C 164.132812 303.945312 171.921875 335.121094 171.921875 335.121094 C 171.921875 335.121094 148.550781 310.273438 148.550781 277.152344 C 148.550781 235.753906 172.933594 232.644531 172.277344 202.632812 Z M 198.09375 202.632812 " fill-opacity="1" fill-rule="nonzero"/><g clip-path="url(#id1)"><path fill="rgb(95.689392%, 31.759644%, 11.759949%)" d="M 187.5 179.25 C 187.5 179.25 218.660156 257.1875 343.292969 210.425781 C 343.292969 210.425781 330.199219 206.824219 319.136719 197.839844 C 319.136719 197.839844 347.808594 191.84375 358.871094 155.871094 C 358.871094 155.871094 346.5625 163.664062 335.503906 163.664062 C 335.503906 163.664062 363.390625 147.476562 374.449219 93.523438 C 374.449219 93.523438 352.328125 107.910156 341.265625 107.910156 C 341.265625 107.910156 366.660156 94.121094 366.660156 31.175781 C 366.660156 31.175781 339.1875 80.773438 292.175781 80.773438 L 195.289062 171.457031 Z M 187.5 179.25 C 187.5 179.25 156.339844 257.1875 31.707031 210.425781 C 31.707031 210.425781 44.800781 206.824219 55.863281 197.839844 C 55.863281 197.839844 27.191406 191.84375 16.128906 155.871094 C 16.128906 155.871094 28.4375 163.664062 39.496094 163.664062 C 39.496094 163.664062 11.609375 147.476562 0.550781 93.523438 C 0.550781 93.523438 22.671875 107.910156 33.734375 107.910156 C 33.734375 107.910156 8.339844 94.121094 8.339844 31.175781 C 8.339844 31.175781 35.8125 80.773438 82.824219 80.773438 L 179.710938 171.457031 Z M 187.5 179.25 " fill-opacity="1" fill-rule="nonzero"/></g><g clip-path="url(#id2)"><path fill="rgb(100%, 65.489197%, 14.898682%)" d="M 188.589844 202.632812 C 188.589844 210.835938 151.855469 260.054688 168.429688 292.871094 C 190.421875 331.222656 187.5 358.5 187.5 358.5 C 187.5 358.5 226.449219 327.328125 226.449219 272.773438 C 196.402344 231.753906 204.347656 243.648438 204.347656 202.632812 Z M 214.761719 132.488281 C 222.554688 132.488281 222.738281 116.980469 245.773438 98.914062 C 282.191406 70.351562 307.964844 80.9375 351.082031 0 C 351.082031 107.910156 311.175781 116.863281 299.664062 125.894531 C 299.664062 125.894531 316.535156 134.96875 351.082031 116.902344 C 351.082031 116.902344 344.992188 143.796875 310.445312 161.863281 C 310.445312 161.863281 312.476562 171.457031 335.503906 171.457031 C 335.503906 171.457031 323.4375 188.84375 288.882812 188.84375 C 288.882812 188.84375 289.101562 201.390625 312.132812 210.425781 C 312.132812 210.425781 238.398438 234.859375 203.851562 189.695312 C 199.003906 183.367188 195.1875 171.050781 195.289062 163.664062 C 195.53125 145.472656 209.226562 132.488281 214.761719 132.488281 Z M 160.238281 132.488281 C 152.445312 132.488281 152.257812 116.980469 129.226562 98.914062 C 92.808594 70.351562 67.035156 80.9375 23.917969 0 C 23.917969 107.910156 63.824219 116.863281 75.335938 125.894531 C 75.335938 125.894531 58.464844 134.96875 23.917969 116.902344 C 23.917969 116.902344 30.007812 143.796875 64.554688 161.863281 C 64.554688 161.863281 62.53125 171.457031 39.496094 171.457031 C 39.496094 171.457031 51.5625 188.84375 86.117188 188.84375 C 86.117188 188.84375 85.898438 201.390625 62.867188 210.425781 C 62.867188 210.425781 136.601562 234.859375 171.148438 189.695312 C 175.996094 183.367188 179.8125 171.050781 179.710938 163.664062 C 179.46875 145.472656 165.773438 132.488281 160.238281 132.488281 Z M 160.238281 132.488281 " fill-opacity="1" fill-rule="nonzero"/></g><path fill="rgb(95.689392%, 31.759644%, 11.759949%)" d="M 164.109375 94.996094 C 204.472656 90.195312 184.664062 130.378906 206.800781 146.667969 C 212.644531 150.960938 211.90625 137.382812 214.761719 132.488281 C 206.972656 132.488281 203.078125 124.695312 203.078125 116.902344 C 203.078125 89.242188 203.96875 76.28125 195.007812 72.824219 C 195.007812 72.824219 203.078125 70.140625 203.078125 46.761719 C 203.078125 46.761719 199.753906 63.914062 176.359375 68.480469 C 172.855469 69.167969 167.183594 73.734375 167.183594 81.511719 C 167.183594 81.511719 140.761719 83.78125 151.472656 101.316406 C 151.472656 101.316406 154.152344 94.996094 164.109375 94.996094 Z M 192.929688 187.042969 C 192.929688 196.503906 177.273438 229.496094 199.136719 262.75 C 217.800781 291.140625 204.113281 319.535156 204.113281 319.535156 C 204.113281 319.535156 226.449219 291.703125 226.449219 272.773438 C 226.449219 226.011719 202.660156 223.710938 203.742188 187.042969 Z M 192.929688 187.042969 " fill-opacity="1" fill-rule="nonzero"/><path fill="rgb(96.078491%, 48.629761%, 0%)" d="M 159.371094 95.546875 C 159.371094 95.546875 172.085938 93.839844 172.046875 116.902344 C 172.03125 125.03125 165.417969 132.488281 160.238281 132.488281 C 156.839844 133.753906 148.550781 144.671875 148.550781 162.503906 C 148.550781 194.835938 187.5 241.597656 187.5 241.597656 C 187.5 241.597656 226.449219 194.835938 226.449219 162.503906 C 226.449219 144.671875 214.761719 132.488281 214.761719 132.488281 C 194.160156 132.488281 197.238281 81.832031 159.371094 95.546875 Z M 159.371094 95.546875 " fill-opacity="1" fill-rule="nonzero"/></svg>